<?xml version="1.0" encoding="UTF-8"?>
<svg version="1.1" xmlns="http://www.w3.org/2000/svg" width="755" height="158">
<path d="M0 0 C2.63804732 1.82634045 3.6860322 3.08525056 4.72265625 6.10546875 C5.11768987 10.22828441 4.10187994 13.66533332 3 17.625 C2.7728833 18.45821777 2.5457666 19.29143555 2.31176758 20.14990234 C-2.78897948 38.32419348 -9.47800733 61.15412727 -23 75 C-25.72308068 76.35742693 -27.39716102 77.01545741 -30.4375 76.9375 C-40.22630913 73.35622837 -44.80221044 62.7070816 -48.98266602 53.87255859 C-50.34821377 50.92638319 -51.68227643 47.96788196 -53 45 C-53.54527344 45.89460938 -54.09054687 46.78921875 -54.65234375 47.7109375 C-69.36520774 71.45506925 -69.36520774 71.45506925 -80 75 C-83.84321877 75 -85.72484291 73.99939347 -89 72 C-98.86668464 59.6435912 -102.94892011 42.36291217 -106.4375 27.25 C-106.6015332 26.54842773 -106.76556641 25.84685547 -106.93457031 25.12402344 C-107.99281967 20.16421939 -108.65777248 15.05921006 -108 10 C-105.45474088 6.29780492 -103.81135075 5.2318145 -99.5 4 C-95.40857306 4 -93.97738901 4.18802149 -91 7 C-87.41129102 14.98703799 -86.0944535 24.08025339 -84.25 32.58203125 C-82.96084497 38.36308585 -81.59697107 43.66693441 -79 49 C-76.2302789 45.70426964 -74.06083191 42.49783734 -72.125 38.65625 C-71.35929688 37.15771484 -71.35929688 37.15771484 -70.578125 35.62890625 C-70.05734375 34.59636719 -69.5365625 33.56382813 -69 32.5 C-67.96363791 30.4452326 -66.92212735 28.39305226 -65.875 26.34375 C-65.41867187 25.43818359 -64.96234375 24.53261719 -64.4921875 23.59960938 C-62.11997229 19.46686272 -59.70402127 15.47840668 -55 14 C-51.5625 13.5625 -51.5625 13.5625 -48 14 C-43.86119122 17.43535583 -41.69810368 21.116199 -39.703125 26.015625 C-39.28447174 27.0002774 -39.28447174 27.0002774 -38.85736084 28.00482178 C-37.97673605 30.08191874 -37.11284914 32.16546451 -36.25 34.25 C-35.36950194 36.34724742 -34.48563022 38.44302771 -33.59979248 40.5380249 C-33.05170945 41.83739114 -32.50735979 43.13833968 -31.96710205 44.440979 C-30.84428631 47.44334845 -30.84428631 47.44334845 -29 50 C-24.40983452 40.44976559 -21.29316136 30.72558978 -18.44897461 20.52929688 C-14.21872095 5.39282394 -14.21872095 5.39282394 -10.8125 1.5 C-6.79241808 -0.64404369 -4.53826897 -0.57628812 0 0 Z " fill="#A95631" transform="translate(643,56)"/>
<path d="M0 0 C8.04029311 5.7430665 9.24596143 15.79685215 10.9375 24.875 C13.03197013 36.00520283 15.8920712 45.26825932 23.44921875 53.96484375 C25.74128517 56.97282008 27.03262099 59.69516024 26.9375 63.5 C25.64289155 66.9522892 23.83757059 68.67835134 21 71 C17.38904658 72.2638337 14.61447867 72.22286254 11 71 C8.796875 68.3125 8.796875 68.3125 6.75 65 C6.06421875 63.906875 5.3784375 62.81375 4.671875 61.6875 C4.12015625 60.800625 3.5684375 59.91375 3 59 C2.67 58.67 2.34 58.34 2 58 C1.47212891 58.87011719 1.47212891 58.87011719 0.93359375 59.7578125 C-3.9654323 67.50927409 -9.03555508 73.16125911 -18 76 C-25.77389385 77.65300054 -32.15595248 77.26732775 -39 73 C-46.19221211 66.74236912 -49.37239879 59.5159072 -50.16015625 50.08203125 C-50.69544392 37.30494719 -46.401083 24.5922229 -37.75 15.125 C-31.00074678 8.95046485 -22.64417661 6.3770815 -13.98046875 3.9921875 C-1.32487976 -0.22081329 -1.32487976 -0.22081329 0 0 Z M-25.25 29.3125 C-30.14826278 35.47778008 -32.21355677 42.16121024 -32 50 C-31.21337023 53.53658344 -29.93393336 56.16268043 -27.1875 58.625 C-23.62818082 59.235169 -21.9741717 57.96295332 -19 56 C-12.19620699 49.60039271 -7.97276585 41.30403468 -7 32 C-6.88641702 26.6093146 -6.88641702 26.6093146 -9 22 C-15.99579179 21.16716764 -20.73220328 24.34739668 -25.25 29.3125 Z " fill="#A95632" transform="translate(174,54)"/>
<path d="M0 0 C0.86318848 -0.02454254 1.72637695 -0.04908508 2.61572266 -0.07437134 C6.70026548 -0.07657604 8.73098925 0.07145064 12.265625 2.29833984 C15.36701351 5.58059181 15.52571208 7.85399665 15.4765625 12.359375 C15.15314628 15.27012098 14.04339425 17.12220634 12.25 19.3984375 C9.66875064 20.68906218 7.53865832 20.69527216 4.65625 20.8984375 C3.54378906 20.9809375 2.43132812 21.0634375 1.28515625 21.1484375 C-1.07161458 21.31510417 -3.42838542 21.48177083 -5.78515625 21.6484375 C-6.89761719 21.7309375 -8.01007813 21.8134375 -9.15625 21.8984375 C-10.18041016 21.970625 -11.20457031 22.0428125 -12.25976562 22.1171875 C-14.74674129 22.25347112 -14.74674129 22.25347112 -16.75 23.3984375 C-16.66435791 24.01662354 -16.57871582 24.63480957 -16.49047852 25.27172852 C-16.09247154 28.1674241 -15.70248687 31.06415129 -15.3125 33.9609375 C-15.17779297 34.93224609 -15.04308594 35.90355469 -14.90429688 36.90429688 C-13.10876313 50.34890318 -12.553079 63.78088794 -12.5 77.3359375 C-12.47918912 78.69335972 -12.45835583 80.0507816 -12.4375 81.40820312 C-12.40976791 88.42788894 -12.52347146 94.09239251 -15.75 100.3984375 C-18.48618791 102.76487028 -20.18699777 103.31633301 -23.75 103.8359375 C-27.49625013 103.28960936 -29.09603528 102.05240222 -31.75 99.3984375 C-32.73439459 96.44525373 -32.89095086 94.46851645 -32.92358398 91.38647461 C-32.93707382 90.36367905 -32.95056366 89.34088348 -32.96446228 88.28709412 C-32.97490067 87.17786087 -32.98533905 86.06862762 -32.99609375 84.92578125 C-33.02908614 82.55663768 -33.0622967 80.18749714 -33.09570312 77.81835938 C-33.14269237 74.09987921 -33.18701343 70.38140611 -33.22680664 66.6628418 C-33.38621206 52.45666937 -33.75986072 38.47829489 -35.75 24.3984375 C-37.19294434 24.51396973 -37.19294434 24.51396973 -38.66503906 24.63183594 C-58.23715433 26.16767597 -58.23715433 26.16767597 -63.8125 24.4609375 C-66.84184351 21.23615248 -67.57854702 17.76676127 -67.75 13.3984375 C-66.67767915 9.92916415 -66.00016473 8.07992523 -62.76953125 6.31884766 C-58.40292461 4.98782348 -54.03091882 4.57769502 -49.5 4.109375 C-47.98720459 3.94714951 -47.98720459 3.94714951 -46.44384766 3.78164673 C-44.30247562 3.55447842 -42.16069501 3.3311337 -40.01855469 3.11132812 C-36.81548191 2.78020677 -33.61490934 2.43002981 -30.4140625 2.078125 C-20.28764814 0.99850515 -10.18667472 0.15376324 0 0 Z " fill="#A75530" transform="translate(87.75,31.6015625)"/>
<path d="M0 0 C0.89178955 -0.00136963 1.7835791 -0.00273926 2.70239258 -0.00415039 C6.67944314 0.06678964 9.57276959 0.35056416 13 2.375 C15.54594764 5.81202931 15.36399464 9.22546112 15 13.375 C13.59539303 16.24805972 12.25489001 18.12010999 10 20.375 C8.0480957 20.67797852 8.0480957 20.67797852 5.67578125 20.75390625 C4.37930664 20.80514648 4.37930664 20.80514648 3.05664062 20.85742188 C2.15107422 20.88384766 1.24550781 20.91027344 0.3125 20.9375 C-5.53225759 21.13728444 -11.22547688 21.41916238 -17 22.375 C-16.91435791 23.03806152 -16.82871582 23.70112305 -16.74047852 24.38427734 C-14.99456389 38.03329798 -13.33864709 51.61122723 -13 65.375 C-12.97276855 66.41962402 -12.94553711 67.46424805 -12.91748047 68.54052734 C-12.83879239 72.02705263 -12.78958561 75.51282386 -12.75 79 C-12.72848877 80.10335693 -12.70697754 81.20671387 -12.68481445 82.34350586 C-12.6588804 88.74823913 -13.18550545 93.58402561 -16 99.375 C-18.73618791 101.74143278 -20.43699777 102.29289551 -24 102.8125 C-27.74625013 102.26617186 -29.34603528 101.02896472 -32 98.375 C-32.9531081 95.51567569 -33.13965737 93.67298818 -33.17358398 90.7019043 C-33.18707382 89.75208176 -33.20056366 88.80225922 -33.21446228 87.82365417 C-33.22490067 86.79259048 -33.23533905 85.76152679 -33.24609375 84.69921875 C-33.27910926 82.48502324 -33.31231926 80.27083062 -33.34570312 78.05664062 C-33.39250758 74.59092863 -33.43677555 71.12522082 -33.47680664 67.65942383 C-33.66068852 52.46769766 -34.37101787 37.4833094 -36 22.375 C-37.42771729 22.60582275 -37.42771729 22.60582275 -38.88427734 22.84130859 C-55.75290401 25.51611041 -55.75290401 25.51611041 -62 24.375 C-64.83298323 22.00931298 -66.76874043 20.08632079 -67.2734375 16.3515625 C-67.54843255 9.9843695 -67.54843255 9.9843695 -64.75 6.875 C-61.15428379 4.91370025 -57.91563858 4.29003887 -53.87182617 3.89428711 C-53.06472702 3.81430984 -52.25762787 3.73433258 -51.42607117 3.65193176 C-50.55714737 3.56956772 -49.68822357 3.48720367 -48.79296875 3.40234375 C-47.88307693 3.31470261 -46.97318512 3.22706146 -46.03572083 3.13676453 C-43.08682065 2.85623571 -40.13733978 2.58296369 -37.1875 2.3125 C-35.69343628 2.17518463 -35.69343628 2.17518463 -34.16918945 2.03509521 C-22.78682058 1.00248929 -11.43785202 -0.0067777 0 0 Z " fill="#A95631" transform="translate(408,31.625)"/>
<path d="M0 0 C9.51751275 7.6140102 14.14623022 17.25697181 15.8125 29.25 C16.73232944 39.30357439 14.44107965 48.04550226 8.5390625 56.2734375 C2.94163749 62.68134939 -4.19698811 64.65938615 -12.40625 65.46875 C-22.07606542 65.87733375 -30.10459476 62.75861562 -37.1875 56.25 C-45.01087791 48.66660301 -49.23881769 40.16469784 -49.4375 29.1875 C-49.30168641 19.09655052 -46.9533058 9.92804928 -40.1875 2.25 C-28.03562737 -9.02868418 -13.73173954 -7.53899426 0 0 Z M-27.734375 17.8359375 C-30.87241336 23.04913027 -31.80195955 28.54149722 -30.5625 34.5 C-28.71056303 39.5507372 -26.96676745 43.00865062 -22.5 46.125 C-18.26018576 47.56493691 -14.61257307 48.11921078 -10.1875 47.25 C-7.12101366 45.52510144 -4.78464869 43.44429738 -3.1875 40.25 C-2.45234762 31.95844532 -2.8550218 24.51738278 -7.1875 17.25 C-10.71762576 13.71987424 -13.53606645 12.53582504 -18.4375 11.6875 C-23.26239261 12.41123389 -24.7889238 14.0811506 -27.734375 17.8359375 Z " fill="#A85530" transform="translate(494.1875,69.75)"/>
<path d="M0 0 C2.9287805 0.75970156 4.22133481 2.32827417 6.18359375 4.56640625 C6.89644531 4.34984375 7.60929688 4.13328125 8.34375 3.91015625 C18.3298469 1.00706482 24.77450642 0.97425783 34.18359375 5.56640625 C42.53677259 10.50237556 46.76353715 21.5726382 49.18359375 30.56640625 C50.88696145 38.89935847 51.38208723 47.20932146 51.49609375 55.69140625 C51.51381836 56.49707031 51.53154297 57.30273438 51.54980469 58.1328125 C51.54392842 62.77898142 51.1630515 65.77636073 48.18359375 69.56640625 C44.97421966 71.89043576 42.06853354 72.04211316 38.18359375 71.56640625 C35.48368713 69.76646851 33.64170725 68.48263325 32.18359375 65.56640625 C32.06618428 64.00282466 32.00476041 62.43484234 31.97265625 60.8671875 C31.94647217 59.91183105 31.92028809 58.95647461 31.89331055 57.97216797 C31.865354 56.9513916 31.83739746 55.93061523 31.80859375 54.87890625 C31.79148065 37.41753806 31.79148065 37.41753806 24.18359375 22.56640625 C21.09517784 21.62717422 18.32176226 21.88273382 15.18359375 22.56640625 C10.97127529 25.43436776 9.72843334 28.2283582 8.59204102 33.10498047 C7.7672662 38.075321 7.74256844 43.10103926 7.62109375 48.12890625 C7.11960021 66.30004457 7.11960021 66.30004457 4.05859375 70.44140625 C0.58179589 73.01121336 -1.5067162 73.56640625 -5.81640625 73.56640625 C-8.62890625 72.56640625 -8.62890625 72.56640625 -10.81640625 70.56640625 C-13.36917623 64.22760241 -12.87535538 58.23555503 -12.50390625 51.50390625 C-12.45121582 50.36373047 -12.39852539 49.22355469 -12.34423828 48.04882812 C-12.13085544 43.48737414 -11.88892484 38.92763625 -11.64599609 34.36767578 C-11.54002921 32.36967181 -11.43635106 30.37154484 -11.33520508 28.37329102 C-11.24255321 26.56477067 -11.14268634 24.75659832 -11.03393555 22.94897461 C-10.76074926 17.74322994 -11.00805565 12.86957463 -11.76757812 7.70751953 C-11.81640625 5.56640625 -11.81640625 5.56640625 -9.94140625 2.44140625 C-6.34577617 0.2840282 -4.1069899 0.00711783 0 0 Z " fill="#A95631" transform="translate(684.81640625,61.43359375)"/>
<path d="M0 0 C2.25726011 1.89121793 3.68646424 3.37292849 5 6 C4.90419132 14.44398869 3.61843973 22.69515422 2.1328125 30.98632812 C-0.42373391 45.34799765 -1.50396398 59.41273978 -1.5 74 C-1.50403839 74.83715546 -1.50807678 75.67431091 -1.51223755 76.53683472 C-1.53168493 85.16775271 -1.41111154 92.92471554 2 101 C3.05893413 104.21076239 3.08277843 104.78216204 1.8125 108.125 C-0.09261412 111.14690516 -0.77620142 111.78380162 -4 113 C-8.6176946 113.32216474 -12.10795084 112.60735262 -15.9375 110 C-30.40992699 88.94919711 -20.31315874 38.71973566 -16.2421875 15.484375 C-15.16068748 10.04272229 -14.20952449 5.6081334 -11 1 C-7.1230868 -1.30519163 -4.28479093 -1.2763207 0 0 Z " fill="#A85531" transform="translate(313,21)"/>
<path d="M0 0 C2.69990662 1.79993774 4.5418865 3.083773 6 6 C6.27234552 10.81143748 5.85104607 15.11708178 5.01171875 19.859375 C3.64443515 28.48690421 3.64465364 37.08059356 3.609375 45.79882812 C3.39181098 57.33576466 3.39181098 57.33576466 -1 62 C-4.19395175 64.34223128 -7.1140109 64.5551413 -11 64 C-13.57285724 61.827365 -15.48996919 60.02006162 -17 57 C-18.18561732 39.86962611 -18.16207055 19.97692662 -11 4 C-7.59338808 0.22510571 -5.04651562 -0.84108594 0 0 Z " fill="#A85530" transform="translate(246,66)"/>
<path d="M0 0 C3.42243083 3.03351823 4.65454779 4.98266101 5.75 9.4375 C4.96356986 14.21168702 3.55093647 18.29841814 -0.25 21.4375 C-3.86930698 22.64393566 -6.44231005 22.76018559 -10.25 22.4375 C-13.95390021 20.41083762 -15.90363011 18.95705484 -18.25 15.4375 C-19.01768116 10.7510743 -18.65885085 7.24059989 -16.5 3 C-11.79427993 -2.3592923 -6.55742958 -3.15261038 0 0 Z " fill="#A95632" transform="translate(253.25,32.5625)"/>
<path d="M0 0 C3 1 3 1 4 3 C4.04022391 5.3329866 4.04320247 7.66706666 4 10 C3.71125 9.360625 3.4225 8.72125 3.125 8.0625 C2.17176549 5.84793921 2.17176549 5.84793921 0 5 C0 6.32 0 7.64 0 9 C0.66 9 1.32 9 2 9 C2 9.66 2 10.32 2 11 C1.01 11.66 0.02 12.32 -1 13 C-1.57748803 14.96361864 -1.57748803 14.96361864 -1.6875 17.125 C-1.8421875 19.043125 -1.8421875 19.043125 -2 21 C-2.66 21 -3.32 21 -4 21 C-4 17.04 -4 13.08 -4 9 C-5.32 9 -6.64 9 -8 9 C-8 7.68 -8 6.36 -8 5 C-9.32 4.34 -10.64 3.68 -12 3 C-11.34 2.34 -10.68 1.68 -10 1 C-7.33333333 1 -4.66666667 1 -2 1 C-1.34 0.67 -0.68 0.34 0 0 Z " fill="#AB5733" transform="translate(246,69)"/>
<path d="M0 0 C0.69287109 0.01804688 1.38574219 0.03609375 2.09960938 0.0546875 C3.79617664 0.10148936 5.49202476 0.17322376 7.1875 0.25 C7.1875 0.58 7.1875 0.91 7.1875 1.25 C1.5775 1.91 -4.0325 2.57 -9.8125 3.25 C-9.8125 6.55 -9.8125 9.85 -9.8125 13.25 C-8.4925 13.58 -7.1725 13.91 -5.8125 14.25 C-5.18859375 14.43433594 -4.5646875 14.61867188 -3.921875 14.80859375 C-1.26409594 15.36475863 1.22461929 15.3447962 3.9375 15.3125 C4.92234375 15.30347656 5.9071875 15.29445313 6.921875 15.28515625 C7.66953125 15.27355469 8.4171875 15.26195312 9.1875 15.25 C8.1975 15.58 7.2075 15.91 6.1875 16.25 C5.8575 17.24 5.5275 18.23 5.1875 19.25 C3.10531638 19.35832169 1.02150871 19.43573541 -1.0625 19.5 C-2.80273438 19.56960937 -2.80273438 19.56960937 -4.578125 19.640625 C-7.8125 19.25 -7.8125 19.25 -10.171875 17.359375 C-12.47007263 14.40454948 -13.02791166 12.57008398 -13.1875 8.875 C-13.23648437 8.10414062 -13.28546875 7.33328125 -13.3359375 6.5390625 C-12.8125 4.25 -12.8125 4.25 -10.77734375 1.9765625 C-7.09921553 -0.16537778 -4.12237389 -0.20513248 0 0 Z " fill="#A25231" transform="translate(353.8125,36.75)"/>
<path d="M0 0 C0.33 0 0.66 0 1 0 C1.87118503 7.02072641 2.29050282 13.99503228 2.5625 21.0625 C2.62727539 22.64708008 2.62727539 22.64708008 2.69335938 24.26367188 C2.79837337 26.84234879 2.90052877 29.42110435 3 32 C4.26972656 32.18175781 5.53945313 32.36351562 6.84765625 32.55078125 C7.56187744 32.65302002 8.27609863 32.75525879 9.01196289 32.8605957 C11.5562048 33.03900196 12.9752693 32.53879533 15 31 C16.585869 27.828262 16.37866445 24.36486178 16.5625 20.875 C16.60568359 20.12089844 16.64886719 19.36679688 16.69335938 18.58984375 C16.7994832 16.72678112 16.90025001 14.86341476 17 13 C17.33 13 17.66 13 18 13 C18.2498764 15.5619857 18.47541116 18.12234131 18.6875 20.6875 C18.76033203 21.40873047 18.83316406 22.12996094 18.90820312 22.87304688 C19.27144213 27.55241998 18.93498021 30.29265658 16 34 C12.79062591 36.32402951 9.88493979 36.47570691 6 36 C3.30009338 34.20006226 1.4581135 32.916227 0 30 C-0.08573394 27.74879258 -0.10712188 25.49500697 -0.09765625 23.2421875 C-0.0962413 22.57913605 -0.09482635 21.91608459 -0.09336853 21.23294067 C-0.08776754 19.11358137 -0.075215 16.99432741 -0.0625 14.875 C-0.05748512 13.43880361 -0.05292219 12.00260556 -0.04882812 10.56640625 C-0.03779782 7.04423655 -0.02053259 3.52212855 0 0 Z " fill="#8A3E1F" transform="translate(717,97)"/>
<path d="M0 0 C0 0.99 0 1.98 0 3 C-0.74685059 3.05534912 -1.49370117 3.11069824 -2.26318359 3.16772461 C-5.63412992 3.41998122 -9.00455319 3.6786585 -12.375 3.9375 C-14.1384375 4.06801758 -14.1384375 4.06801758 -15.9375 4.20117188 C-17.61972656 4.33168945 -17.61972656 4.33168945 -19.3359375 4.46484375 C-20.37282715 4.543396 -21.4097168 4.62194824 -22.47802734 4.70288086 C-24.99156472 4.85432767 -24.99156472 4.85432767 -27 6 C-26.75443359 7.27230469 -26.75443359 7.27230469 -26.50390625 8.5703125 C-25.99051555 12.0645531 -25.90149261 15.34627574 -25.9375 18.875 C-25.94652344 20.02742188 -25.95554687 21.17984375 -25.96484375 22.3671875 C-25.97644531 23.23601562 -25.98804687 24.10484375 -26 25 C-26.33 25 -26.66 25 -27 25 C-27.53195312 22.1058144 -28.05086335 19.21028485 -28.5625 16.3125 C-28.71396484 15.49587891 -28.86542969 14.67925781 -29.02148438 13.83789062 C-29.16005859 13.04189453 -29.29863281 12.24589844 -29.44140625 11.42578125 C-29.57232666 10.69786377 -29.70324707 9.96994629 -29.83813477 9.2199707 C-30 7 -30 7 -29 2 C-14.645 1.01 -14.645 1.01 0 0 Z " fill="#934221" transform="translate(98,49)"/>
<path d="M0 0 C3.46814671 0.99089906 4.80396884 2.11457303 7.0625 4.875 C8.41689668 7.58379335 8.12751451 9.88433268 8.0625 12.875 C5.0925 12.38 5.0925 12.38 2.0625 11.875 C2.0625 11.215 2.0625 10.555 2.0625 9.875 C0.7425 9.875 -0.5775 9.875 -1.9375 9.875 C-1.9375 7.895 -1.9375 5.915 -1.9375 3.875 C-3.2575 3.215 -4.5775 2.555 -5.9375 1.875 C-2.9375 -0.125 -2.9375 -0.125 0 0 Z " fill="#AB5B37" transform="translate(309.9375,20.125)"/>
<path d="M0 0 C4.38135089 8.76270177 3.15818273 19.87700815 3.125 29.5 C3.12886719 30.65242188 3.13273437 31.80484375 3.13671875 32.9921875 C3.13542969 34.09820312 3.13414062 35.20421875 3.1328125 36.34375 C3.13112061 37.83165039 3.13112061 37.83165039 3.12939453 39.34960938 C3.01340382 41.72544931 2.6781114 43.72930322 2 46 C1.34 46 0.68 46 0 46 C0 30.82 0 15.64 0 0 Z " fill="#934627" transform="translate(392,81)"/>
<path d="M0 0 C0.66 0 1.32 0 2 0 C2.16912527 5.08603032 2.32950463 10.17223825 2.48217773 15.25878906 C2.53517849 16.9850994 2.59046835 18.71134118 2.64819336 20.4375 C2.94580691 29.38143412 3.23257437 38.1072042 2 47 C1.67 47 1.34 47 1 47 C-0.00540109 36.70455686 -0.12049498 26.52045423 -0.0625 16.1875 C-0.05746947 14.6087254 -0.05290934 13.02994922 -0.04882812 11.45117188 C-0.03795816 7.6340748 -0.02078136 3.81705545 0 0 Z " fill="#955139" transform="translate(375,79)"/>
<path d="M0 0 C0.66 0 1.32 0 2 0 C2.09941096 4.0200263 2.17172063 8.03956963 2.21972656 12.06054688 C2.23975319 13.42623368 2.26698332 14.79183569 2.30175781 16.15722656 C2.35066432 18.12787102 2.37091347 20.09915983 2.390625 22.0703125 C2.41157227 23.25383301 2.43251953 24.43735352 2.45410156 25.65673828 C1.90564858 29.69464967 0.50385986 31.82731684 -2 35 C-4.5946113 36.92503419 -5.5238972 37.06492311 -8.75 36.625 C-9.4925 36.41875 -10.235 36.2125 -11 36 C-11 35.67 -11 35.34 -11 35 C-8.36 34.67 -5.72 34.34 -3 34 C-1.10287137 29.96277715 -0.7033499 26.61007126 -0.5859375 22.16796875 C-0.54726562 20.87568359 -0.50859375 19.58339844 -0.46875 18.25195312 C-0.43729986 16.89714005 -0.40605239 15.54232225 -0.375 14.1875 C-0.3367825 12.81312728 -0.2977286 11.43877756 -0.2578125 10.06445312 C-0.16364596 6.70977011 -0.078018 3.35509107 0 0 Z " fill="#935032" transform="translate(247,93)"/>
<path d="M0 0 C0.66 0 1.32 0 2 0 C1.49090766 2.88485659 0.86295312 5.33576485 -0.25 8.0625 C-1.36631753 11.00587853 -1.36631753 11.00587853 0.375 13.375 C0.91125 13.91125 1.4475 14.4475 2 15 C1.34 16.32 0.68 17.64 0 19 C0 18.01 0 17.02 0 16 C-1.94074861 16.27617533 -1.94074861 16.27617533 -4 17 C-4.66 17.99 -5.32 18.98 -6 20 C-9.21029714 18.89300099 -10.00968977 17.98396175 -11.8125 15 C-12.4003125 13.515 -12.4003125 13.515 -13 12 C-12.67 11.34 -12.34 10.68 -12 10 C-9.525 13.465 -9.525 13.465 -7 17 C-4.69 11.39 -2.38 5.78 0 0 Z " fill="#9D4B25" transform="translate(621,89)"/>
<path d="M0 0 C2.69990662 1.79993774 4.5418865 3.083773 6 6 C6.14856188 10.53113746 6.10529324 14.57882704 5 19 C4.34 19 3.68 19 3 19 C3.01160156 18.08476563 3.02320313 17.16953125 3.03515625 16.2265625 C3.04417969 15.03804687 3.05320313 13.84953125 3.0625 12.625 C3.07410156 11.44164063 3.08570313 10.25828125 3.09765625 9.0390625 C3.21466593 6.08078479 3.21466593 6.08078479 2 4 C0.02 4.66 -1.96 5.32 -4 6 C-4 5.34 -4 4.68 -4 4 C-4.66 4 -5.32 4 -6 4 C-6.33 4.66 -6.66 5.32 -7 6 C-7.99 6 -8.98 6 -10 6 C-9.6875 4.125 -9.6875 4.125 -9 2 C-5.48746854 -0.34168764 -4.13530644 -0.49623677 0 0 Z " fill="#954323" transform="translate(246,66)"/>
<path d="M0 0 C0.33 1.65 0.66 3.3 1 5 C0.319375 4.9175 -0.36125 4.835 -1.0625 4.75 C-5.25253205 5.10659847 -7.48657446 6.67981332 -11 9 C-11.66 9.99 -12.32 10.98 -13 12 C-13.35671933 8.16526716 -13.29771416 6.44657125 -11.125 3.1875 C-7.53318706 -0.50995449 -5.03415735 -0.09322514 0 0 Z " fill="#A85531" transform="translate(642,56)"/>
<path d="M0 0 C0.66 0.33 1.32 0.66 2 1 C1.071875 1.99 1.071875 1.99 0.125 3 C-4.39236487 9.37745629 -4.30545968 16.62433715 -4.65893555 24.1887207 C-4.84861129 28.19629126 -5.25684796 32.05699495 -6 36 C-6.33 36 -6.66 36 -7 36 C-7.05869332 32.50007197 -7.09382709 29.0002728 -7.125 25.5 C-7.14175781 24.51773438 -7.15851562 23.53546875 -7.17578125 22.5234375 C-7.22795276 14.6977108 -6.76675157 7.55428341 -2 1 C-1.34 0.67 -0.68 0.34 0 0 Z " fill="#963C15" transform="translate(697,83)"/>
<path d="M0 0 C0.7425 0.0825 1.485 0.165 2.25 0.25 C2.25 1.24 2.25 2.23 2.25 3.25 C1.63125 3.3325 1.0125 3.415 0.375 3.5 C-1.91150356 4.03035516 -1.91150356 4.03035516 -2.6875 6.125 C-4.15571204 9.06142408 -5.76638655 9.97130852 -8.75 11.25 C-11.0625 10.4375 -11.0625 10.4375 -12.75 9.25 C-11.46937515 7.5425002 -10.13232443 5.87626404 -8.75 4.25 C-8.09 4.25 -7.43 4.25 -6.75 4.25 C-6.151875 3.59 -5.55375 2.93 -4.9375 2.25 C-2.75 0.25 -2.75 0.25 0 0 Z " fill="#A95A38" transform="translate(461.75,69.75)"/>
<path d="M0 0 C1.04929687 -0.01224609 2.09859375 -0.02449219 3.1796875 -0.03710938 C4.68789063 -0.04000977 4.68789063 -0.04000977 6.2265625 -0.04296875 C7.14260254 -0.04707764 8.05864258 -0.05118652 9.00244141 -0.05541992 C11.375 0.1875 11.375 0.1875 14.375 2.1875 C14.045 2.8475 13.715 3.5075 13.375 4.1875 C12.715 3.8575 12.055 3.5275 11.375 3.1875 C9.19675039 3.10190882 7.01584745 3.08036588 4.8359375 3.08984375 C2.88300781 3.09467773 2.88300781 3.09467773 0.890625 3.09960938 C-0.48958399 3.10796534 -1.86979232 3.11643029 -3.25 3.125 C-4.63801926 3.13001499 -6.02604022 3.1345779 -7.4140625 3.13867188 C-10.81775132 3.15049024 -14.22135439 3.16696566 -17.625 3.1875 C-17.295 2.5275 -16.965 1.8675 -16.625 1.1875 C-11.19307456 -0.31328555 -5.58907099 0.00345858 0 0 Z " fill="#914525" transform="translate(405.625,31.8125)"/>
<path d="M0 0 C1.65 0 3.3 0 5 0 C5.33 1.98 5.66 3.96 6 6 C3.69 6 1.38 6 -1 6 C-1.66 9.96 -2.32 13.92 -3 18 C-3.33 18 -3.66 18 -4 18 C-4.53449652 10.75460274 -3.71607548 6.27087737 0 0 Z " fill="#9C4E30" transform="translate(302,22)"/>
<path d="M0 0 C0.33 0 0.66 0 1 0 C0.95875 1.155 0.9175 2.31 0.875 3.5 C0.88617434 9.81349965 2.06383019 15.89755766 6 21 C7.64605826 22.03357147 9.30963442 23.04060332 11 24 C11 24.66 11 25.32 11 26 C5.75613135 24.61191712 2.9445917 21.35480279 0 17 C-2.32230887 11.54762266 -2.2128675 6.70905309 -1 1 C-0.67 0.67 -0.34 0.34 0 0 Z " fill="#984D2F" transform="translate(463,92)"/>
<path d="M0 0 C1 1 1 1 1.09765625 3.28515625 C1.08605469 4.20167969 1.07445313 5.11820313 1.0625 6.0625 C1.05347656 6.98160156 1.04445313 7.90070312 1.03515625 8.84765625 C1.02355469 9.55792969 1.01195313 10.26820312 1 11 C0.67 11 0.34 11 0 11 C-0.33 8.36 -0.66 5.72 -1 3 C-1.88300781 3.0721875 -2.76601563 3.144375 -3.67578125 3.21875 C-11.13716579 3.79578511 -18.51697331 4.13744335 -26 4 C-26 3.67 -26 3.34 -26 3 C-7.6233323 -0.54452374 -7.6233323 -0.54452374 0 0 Z " fill="#AA674B" transform="translate(53,53)"/>
<path d="M0 0 C0 1.32 0 2.64 0 4 C-1.9914056 4.38133299 -3.99279077 4.71325582 -6 5 C-6.33 4.67 -6.66 4.34 -7 4 C-9.69654854 3.92680379 -12.36691458 3.90757463 -15.0625 3.9375 C-16.20041992 3.94426758 -16.20041992 3.94426758 -17.36132812 3.95117188 C-19.24091871 3.9629932 -21.12046899 3.98092922 -23 4 C-22.67 3.34 -22.34 2.68 -22 2 C-14.77297327 0.41142696 -7.38921642 -0.29556866 0 0 Z " fill="#9A4C2A" transform="translate(75,33)"/>
<path d="M0 0 C3.60816206 3.60816206 3.990622 9.2850679 4.0078125 14.26171875 C3.60451417 18.49635125 2.4730254 21.55926901 0 25 C-0.33 24.01 -0.66 23.02 -1 22 C-0.67 21.34 -0.34 20.68 0 20 C0.09774794 17.91854396 0.12975741 15.83374453 0.125 13.75 C0.12757813 12.63109375 0.13015625 11.5121875 0.1328125 10.359375 C0.07134985 6.9849654 0.07134985 6.9849654 -0.5703125 3.640625 C-0.71210938 2.76921875 -0.85390625 1.8978125 -1 1 C-0.67 0.67 -0.34 0.34 0 0 Z " fill="#954C2C" transform="translate(490,90)"/>
<path d="M0 0 C-0.33644531 0.69351563 -0.67289063 1.38703125 -1.01953125 2.1015625 C-2.16689887 5.49338231 -2.0375187 7.82420792 -1.6875 11.375 C-1.57921875 12.51066406 -1.4709375 13.64632812 -1.359375 14.81640625 C-0.97438406 18.22692377 -0.55143747 21.61259838 0 25 C-0.66 25.33 -1.32 25.66 -2 26 C-6.8279519 7.40663763 -6.8279519 7.40663763 -3.625 1.4375 C-2 0 -2 0 0 0 Z " fill="#904928" transform="translate(540,62)"/>
<path d="M0 0 C0.433125 0.9590625 0.433125 0.9590625 0.875 1.9375 C1.82823451 4.15206079 1.82823451 4.15206079 4 5 C4.33 4.34 4.66 3.68 5 3 C4.51219512 8.48780488 4.51219512 8.48780488 2.125 10.875 C0 12 0 12 -3 12 C-3 10.02 -3 8.04 -3 6 C-2.34 6 -1.68 6 -1 6 C-1.0309375 4.7934375 -1.0309375 4.7934375 -1.0625 3.5625 C-1 1 -1 1 0 0 Z " fill="#9D4F2C" transform="translate(195,113)"/>
<path d="M0 0 C1.670625 0.061875 1.670625 0.061875 3.375 0.125 C0.75 4 0.75 4 -2.625 5.125 C-5.56267479 8.34927721 -7.76658843 11.17694593 -9.625 15.125 C-9.19597078 8.20135603 -8.45366417 0.29150566 0 0 Z " fill="#AC5A35" transform="translate(246.625,30.875)"/>
<path d="M0 0 C0.69287109 0.01804688 1.38574219 0.03609375 2.09960938 0.0546875 C3.79617664 0.10148936 5.49202476 0.17322376 7.1875 0.25 C7.1875 0.58 7.1875 0.91 7.1875 1.25 C1.5775 1.91 -4.0325 2.57 -9.8125 3.25 C-9.8125 6.88 -9.8125 10.51 -9.8125 14.25 C-10.8025 13.92 -11.7925 13.59 -12.8125 13.25 C-12.94845863 11.83603027 -13.04493845 10.41823316 -13.125 9 C-13.18300781 8.21109375 -13.24101562 7.4221875 -13.30078125 6.609375 C-12.8125 4.25 -12.8125 4.25 -10.78125 1.96875 C-7.10083849 -0.16201456 -4.11993035 -0.20501089 0 0 Z " fill="#8F4425" transform="translate(353.8125,36.75)"/>
<path d="M0 0 C1.13442193 3.41215039 1.03350773 3.92066292 -0.4765625 7.49609375 C-1.18001894 8.81673367 -1.89670137 10.13039562 -2.625 11.4375 C-2.96917969 12.09298828 -3.31335938 12.74847656 -3.66796875 13.42382812 C-5.96299078 17.64548304 -8.44707776 20.7649708 -12 24 C-11.44788082 20.23375845 -10.48262199 17.87947814 -8.25 14.8125 C-4.97004709 10.1064806 -2.44398373 5.17994782 0 0 Z " fill="#8C422B" transform="translate(632,106)"/>
<path d="M0 0 C0.66 0 1.32 0 2 0 C2.29132813 0.556875 2.58265625 1.11375 2.8828125 1.6875 C5.48858167 6.53849166 8.28933946 10.90210031 11.765625 15.17578125 C13.08205762 17.1212687 13.57449795 18.70532821 14 21 C13.34 21.33 12.68 21.66 12 22 C11.59007812 21.12472656 11.18015625 20.24945313 10.7578125 19.34765625 C8.51846984 15.08295255 5.68429589 11.48246996 2.7421875 7.68359375 C1.00345957 5.00532897 0.37470707 3.13959103 0 0 Z " fill="#8E4125" transform="translate(186,93)"/>
<path d="M0 0 C3.125 -0.1875 3.125 -0.1875 6 0 C6 1.32 6 2.64 6 4 C5.06027344 4.16435547 5.06027344 4.16435547 4.1015625 4.33203125 C2.87566406 4.56986328 2.87566406 4.56986328 1.625 4.8125 C0.40683594 5.03873047 0.40683594 5.03873047 -0.8359375 5.26953125 C-3.35820641 5.87544942 -3.35820641 5.87544942 -5 9 C-5 8.01 -5 7.02 -5 6 C-6.32 6.33 -7.64 6.66 -9 7 C-8.34 5.68 -7.68 4.36 -7 3 C-7 3.66 -7 4.32 -7 5 C-3.34683329 3.75023244 -2.21934164 3.32901247 0 0 Z " fill="#A45A38" transform="translate(588,74)"/>
<path d="M0 0 C0.66 0 1.32 0 2 0 C3.87387655 9.77092772 4.22867275 19.10355133 4 29 C3.67 29 3.34 29 3 29 C2.93941406 28.07316406 2.87882813 27.14632812 2.81640625 26.19140625 C2.73261719 24.99386719 2.64882813 23.79632813 2.5625 22.5625 C2.48128906 21.36753906 2.40007813 20.17257813 2.31640625 18.94140625 C2.32343886 16.11429756 2.32343886 16.11429756 1 15 C0.76346477 12.47403741 0.57826308 9.96892793 0.4375 7.4375 C0.39431641 6.72658203 0.35113281 6.01566406 0.30664062 5.28320312 C0.20028223 3.52238088 0.09961154 1.7612168 0 0 Z " fill="#954C2E" transform="translate(732,94)"/>
<path d="M0 0 C0.7425 0.185625 1.485 0.37125 2.25 0.5625 C2.8275 0.706875 3.405 0.85125 4 1 C3.67 1.99 3.34 2.98 3 4 C-1.16138263 4.08159574 -4.9472484 3.98248524 -9 3 C-9 2.67 -9 2.34 -9 2 C-10.65 1.67 -12.3 1.34 -14 1 C-14 0.67 -14 0.34 -14 0 C-12.41773035 -0.19627391 -10.83410729 -0.38165538 -9.25 -0.5625 C-8.36828125 -0.66691406 -7.4865625 -0.77132812 -6.578125 -0.87890625 C-4.09030137 -0.99575857 -2.35854615 -0.7319626 0 0 Z " fill="#B1562F" transform="translate(389,34)"/>
<path d="M0 0 C0.66 0.33 1.32 0.66 2 1 C-5.44227881 8.05566693 -11.71500447 11.32366243 -22 12 C-21.67 11.34 -21.34 10.68 -21 10 C-18.80920224 9.35392023 -16.59600878 8.78304211 -14.375 8.25 C-8.06548713 6.55029449 -4.48392206 4.69744216 0 0 Z " fill="#884026" transform="translate(169,119)"/>
<path d="M0 0 C4.07915022 2.10559202 6.04642613 4.08662363 8.3125 8.0625 C8.82425781 8.94035156 9.33601562 9.81820312 9.86328125 10.72265625 C11 13 11 13 11 15 C10.34 15 9.68 15 9 15 C8.7525 14.360625 8.505 13.72125 8.25 13.0625 C7.18437567 10.81258459 7.18437567 10.81258459 4.875 10.25 C4.25625 10.1675 3.6375 10.085 3 10 C2.690625 8.906875 2.38125 7.81375 2.0625 6.6875 C1.41662103 4.44592006 0.7376883 2.2130649 0 0 Z " fill="#974B27" transform="translate(719,68)"/>
<path d="M0 0 C2 2 2 2 2.08203125 4.28515625 C1.48861098 10.39996507 0.71567878 16.41271831 -2 22 C-2.66 22.33 -3.32 22.66 -4 23 C-3.18305433 18.03487387 -2.31506436 13.07966957 -1.4375 8.125 C-1.29892578 7.34125 -1.16035156 6.5575 -1.01757812 5.75 C-0.67864717 3.83328703 -0.33936001 1.91663705 0 0 Z " fill="#984929" transform="translate(167,78)"/>
<path d="M0 0 C2.4375 2 2.4375 2 4 4 C3.67 4.99 3.34 5.98 3 7 C2.649375 6.34 2.29875 5.68 1.9375 5 C0.06343011 2.65959319 0.06343011 2.65959319 -3.375 2.5 C-8.41000391 3.1944833 -10.52304617 5.52304617 -14 9 C-13.875 6.75 -13.875 6.75 -13 4 C-8.77808814 0.28069669 -5.58500842 -0.82740865 0 0 Z " fill="#8F4224" transform="translate(595,70)"/>
<path d="M0 0 C5.36814999 6.55274175 6.33717311 14.78094656 7 23 C6.34 22.67 5.68 22.34 5 22 C5 20.02 5 18.04 5 16 C4.34 16 3.68 16 3 16 C2.8046875 13.94921875 2.609375 11.8984375 2.4140625 9.84765625 C2.20910156 8.93306641 2.20910156 8.93306641 2 8 C1.34 7.67 0.68 7.34 0 7 C0 4.69 0 2.38 0 0 Z " fill="#9D5A41" transform="translate(178,59)"/>
<path d="M0 0 C0.66 0 1.32 0 2 0 C2 5.94 2 11.88 2 18 C-1.3859746 13.4853672 -1.3859746 13.4853672 -1.25 9.5625 C-1.22421875 8.78132813 -1.1984375 8.00015625 -1.171875 7.1953125 C-0.97939911 4.73687046 -0.61643382 2.38868105 0 0 Z " fill="#A76044" transform="translate(125,92)"/>
<path d="M0 0 C0.33 0 0.66 0 1 0 C0.55355616 7.58954531 -2.11500562 14.01639737 -5 21 C-5.66 21 -6.32 21 -7 21 C-5.180206 13.74839665 -2.93841629 6.87619244 0 0 Z " fill="#904322" transform="translate(642,79)"/>
<path d="M0 0 C5.41538462 -0.36923077 5.41538462 -0.36923077 8.375 1.5 C8.91125 1.995 9.4475 2.49 10 3 C9.67 3.99 9.34 4.98 9 6 C8.34 6 7.68 6 7 6 C6.34 6.66 5.68 7.32 5 8 C4.34 8 3.68 8 3 8 C3.33 6.68 3.66 5.36 4 4 C3.01 3.67 2.02 3.34 1 3 C0.67 2.01 0.34 1.02 0 0 Z " fill="#AE552B" transform="translate(246,32)"/>
<path d="M0 0 C0.33 0 0.66 0 1 0 C1.10845031 2.56364483 1.18749744 5.12266279 1.25 7.6875 C1.30027344 8.7693457 1.30027344 8.7693457 1.3515625 9.87304688 C1.42162679 13.70906693 1.24320908 15.59465154 -0.78125 18.96875 C-3.72772597 21.666228 -6.08603197 21.77419415 -10 22 C-10.33 21.34 -10.66 20.68 -11 20 C-7.04 19.505 -7.04 19.505 -3 19 C-1.05543072 14.86581409 -0.62971979 11.230003 -0.375 6.6875 C-0.30023438 5.43324219 -0.22546875 4.17898437 -0.1484375 2.88671875 C-0.09945312 1.93410156 -0.05046875 0.98148437 0 0 Z " fill="#8E4120" transform="translate(247,108)"/>
<path d="M0 0 C0.66 0 1.32 0 2 0 C2.47179687 0.99580078 2.47179687 0.99580078 2.953125 2.01171875 C5.9330318 8.16002043 9.0130559 13.2624031 14 18 C8.61471411 17.18333027 6.13134331 13.12974262 3 9 C0 3.87096774 0 3.87096774 0 0 Z " fill="#8A4124" transform="translate(447,109)"/>
<path d="M0 0 C0.33 0.99 0.66 1.98 1 3 C1.99 2.01 2.98 1.02 4 0 C4.21192221 5.19209404 3.5912689 9.126739 2 14 C1.34 14 0.68 14 0 14 C0.33 12.02 0.66 10.04 1 8 C0.34 7.67 -0.32 7.34 -1 7 C-1 6.34 -1 5.68 -1 5 C-1.33 4.01 -1.66 3.02 -2 2 C-1.34 1.34 -0.68 0.68 0 0 Z " fill="#994621" transform="translate(643,63)"/>
<path d="M0 0 C2.49415272 0.99766109 3.78740335 1.68616685 5.3125 3.9375 C6 6 6 6 5 9 C3.4375 10.6875 3.4375 10.6875 2 12 C1.67 10.68 1.34 9.36 1 8 C0.34 8 -0.32 8 -1 8 C-0.67 5.36 -0.34 2.72 0 0 Z " fill="#A1563A" transform="translate(642,56)"/>
<path d="M0 0 C1.32 0.33 2.64 0.66 4 1 C3.0409375 1.6496875 3.0409375 1.6496875 2.0625 2.3125 C-0.26746003 3.91239177 -0.26746003 3.91239177 -1 7 C-1.13156527 10.68382769 -1.16982138 13.49053585 0 17 C-1.32 16.34 -2.64 15.68 -4 15 C-4.51211281 8.59858988 -4.11888494 5.01989102 0 0 Z " fill="#8E452A" transform="translate(239,33)"/>
<path d="M0 0 C2 1 2 1 2.62109375 2.734375 C3.04706889 5.28144284 3.09646629 7.66856169 3.0625 10.25 C3.05347656 11.14203125 3.04445313 12.0340625 3.03515625 12.953125 C3.02355469 13.62859375 3.01195312 14.3040625 3 15 C2.01 15 1.02 15 0 15 C0 10.05 0 5.1 0 0 Z " fill="#AE6F53" transform="translate(507,94)"/>
<path d="M0 0 C0.66 0 1.32 0 2 0 C3.38938077 1.96147874 4.7260411 3.96166576 6 6 C7.0725 5.690625 8.145 5.38125 9.25 5.0625 C11.82866222 4.33187904 14.39512102 3.62517096 17 3 C13.79372991 6.31314576 12.28578336 7.83332438 7.625 8.4375 C4 8 4 8 1.5625 5.125 C0 2 0 2 0 0 Z " fill="#944325" transform="translate(141,106)"/>
<path d="M0 0 C12.66970387 -0.3690205 12.66970387 -0.3690205 18 2 C18 2.66 18 3.32 18 4 C12.06 3.34 6.12 2.68 0 2 C0 1.34 0 0.68 0 0 Z " fill="#924325" transform="translate(469,64)"/>
<path d="M0 0 C2 1 2 1 2.8125 3 C3.85955198 5.28474077 3.85955198 5.28474077 6.625 5.75 C7.40875 5.8325 8.1925 5.915 9 6 C9 6.99 9 7.98 9 9 C7.68 8.67 6.36 8.34 5 8 C5 8.99 5 9.98 5 11 C4.34 11 3.68 11 3 11 C0 4.5 0 4.5 0 0 Z " fill="#9B4826" transform="translate(543,101)"/>
<path d="M0 0 C0.66 0.33 1.32 0.66 2 1 C1.505 1.94875 1.01 2.8975 0.5 3.875 C-1.14424369 6.72278166 -1.14424369 6.72278166 -1 9 C-0.34 9.66 0.32 10.32 1 11 C-2.75 14 -2.75 14 -5 14 C-4.53411505 8.29290936 -3.06242216 4.84060277 0 0 Z " fill="#984927" transform="translate(131,77)"/>
<path d="M0 0 C0.66 0.33 1.32 0.66 2 1 C0.8984375 2.484375 0.8984375 2.484375 -1 4 C-3.9609375 4.328125 -3.9609375 4.328125 -7.375 4.25 C-8.49648438 4.23453125 -9.61796875 4.2190625 -10.7734375 4.203125 C-13.61740668 4.02408578 -16.22939793 3.64336078 -19 3 C-19 2.67 -19 2.34 -19 2 C-17.19402344 1.90912109 -17.19402344 1.90912109 -15.3515625 1.81640625 C-13.77602923 1.73200268 -12.20050904 1.64735459 -10.625 1.5625 C-9.8309375 1.52318359 -9.036875 1.48386719 -8.21875 1.44335938 C-3.97398779 1.31106596 -3.97398779 1.31106596 0 0 Z " fill="#8B3C1C" transform="translate(419,48)"/>
<path d="M0 0 C0.75 1.75 0.75 1.75 1 4 C-0.85055798 6.23343204 -2.40383083 7.70191542 -5 9 C-6.54613014 8.91348369 -8.08909387 8.75997364 -9.625 8.5625 C-10.44226563 8.46066406 -11.25953125 8.35882813 -12.1015625 8.25390625 C-12.72804688 8.17011719 -13.35453125 8.08632812 -14 8 C-14 7.01 -14 6.02 -14 5 C-13.34 5.33 -12.68 5.66 -12 6 C-7.94146819 6.48681785 -7.94146819 6.48681785 -4 6 C-1.43319686 3.15269289 -1.43319686 3.15269289 0 0 Z " fill="#8B4027" transform="translate(314,125)"/>
<path d="M0 0 C6.27 0.33 12.54 0.66 19 1 C15.08993268 2.95503366 13.67751666 3.25062182 9.5 3.1875 C8.09234375 3.17783203 8.09234375 3.17783203 6.65625 3.16796875 C4.29379415 3.01857816 2.26283335 2.66710889 0 2 C0 1.34 0 0.68 0 0 Z " fill="#A15A40" transform="translate(471,132)"/>
<path d="M0 0 C1.02891637 3.0867491 0.98947742 4.13934736 0.44140625 7.23046875 C0.30283203 8.03291016 0.16425781 8.83535156 0.02148438 9.66210938 C-0.12998047 10.49548828 -0.28144531 11.32886719 -0.4375 12.1875 C-0.58509766 13.03248047 -0.73269531 13.87746094 -0.88476562 14.74804688 C-1.24996003 16.8331891 -1.6241243 18.91675673 -2 21 C-2.33 21 -2.66 21 -3 21 C-3.55353075 6.21867882 -3.55353075 6.21867882 0 0 Z " fill="#924323" transform="translate(234,76)"/>
<path d="M0 0 C0.33 0 0.66 0 1 0 C1.33 8.58 1.66 17.16 2 26 C1.01 25.67 0.02 25.34 -1 25 C-0.67 16.75 -0.34 8.5 0 0 Z " fill="#9F644C" transform="translate(293,66)"/>
<path d="M0 0 C-3 2 -3 2 -5.375 3.3125 C-8.33993557 5.21853001 -10.58396854 7.4459096 -13 10 C-13.33 9.01 -13.66 8.02 -14 7 C-12.87720538 6.01830524 -11.75168527 5.03972702 -10.625 4.0625 C-9.68527344 3.24458984 -9.68527344 3.24458984 -8.7265625 2.41015625 C-5.73435891 -0.03370234 -3.79251756 -0.09980309 0 0 Z " fill="#924320" transform="translate(467,66)"/>
<path d="M0 0 C3.8466088 3.8466088 3.05641991 9.21908174 3.0625 14.375 C3.04653244 16.25004775 3.02730462 18.12508307 3 20 C2.67 20 2.34 20 2 20 C0.57997892 13.2168636 -0.22731216 6.93302093 0 0 Z " fill="#903F1C" transform="translate(373,54)"/>
<path d="M0 0 C0.66 0 1.32 0 2 0 C0.63649571 3.64475185 -1.001464 6.91244487 -3 10.25 C-3.515625 11.12140625 -4.03125 11.9928125 -4.5625 12.890625 C-6 15 -6 15 -8 16 C-6.46197215 10.15549417 -3.5439162 4.87288478 0 0 Z " fill="#8B4024" transform="translate(575,88)"/>
<path d="M0 0 C2.88807083 0.29876595 3.82055047 0.7806728 5.6875 3.0625 C7.35435091 6.79307108 7.65550627 9.93497396 8 14 C7.01 14.495 7.01 14.495 6 15 C5.85304688 13.73542969 5.85304688 13.73542969 5.703125 12.4453125 C5.47882812 10.80175781 5.47882812 10.80175781 5.25 9.125 C5.11078125 8.03445312 4.9715625 6.94390625 4.828125 5.8203125 C4.29064565 2.87221871 4.29064565 2.87221871 1.921875 1.6171875 C1.28765625 1.41351563 0.6534375 1.20984375 0 1 C0 0.67 0 0.34 0 0 Z " fill="#8C4020" transform="translate(547,61)"/>
<path d="M0 0 C0.474375 0.680625 0.94875 1.36125 1.4375 2.0625 C4.44687638 4.33788214 5.14283302 4.17604334 8.75 3.75 C10.17020201 3.52093516 11.58845901 3.27748242 13 3 C12 6 12 6 10 7 C6.66525346 7.28997796 4.61323874 7.32275723 1.625 5.75 C0 4 0 4 0 0 Z " fill="#8F4A2D" transform="translate(57,128)"/>
<path d="M0 0 C7.9529703 -0.77970297 7.9529703 -0.77970297 11.9375 2.1875 C13.83684718 4.77751889 15.04129516 6.94957551 16 10 C15.34 10 14.68 10 14 10 C13.38125 9.05125 12.7625 8.1025 12.125 7.125 C9.27078189 2.92762043 7.62837921 2.31314985 2.75 1.375 C1.8425 1.25125 0.935 1.1275 0 1 C0 0.67 0 0.34 0 0 Z " fill="#8B3E1D" transform="translate(700,81)"/>
<path d="M0 0 C0.33 0 0.66 0 1 0 C2.70663707 5.60752181 3.91103333 11.24237834 5 17 C4.34 17 3.68 17 3 17 C0.70657253 11.10261508 -0.34548714 6.33393082 0 0 Z " fill="#964623" transform="translate(182,75)"/>
<path d="M0 0 C1.98 0.99 1.98 0.99 4 2 C4.33 1.34 4.66 0.68 5 0 C6.32 0 7.64 0 9 0 C8.67 1.65 8.34 3.3 8 5 C2.25 4.125 2.25 4.125 0 3 C0 2.01 0 1.02 0 0 Z " fill="#9D4C2B" transform="translate(675,130)"/>
<path d="M0 0 C0.66 0 1.32 0 2 0 C2.83214205 3.74463925 3 7.16128255 3 11 C2.34 11 1.68 11 1 11 C-0.5625 8.1875 -0.5625 8.1875 -2 5 C-1 2 -1 2 0 0 Z " fill="#A65E3F" transform="translate(296,120)"/>
<path d="M0 0 C0.66 0.66 1.32 1.32 2 2 C1.25234375 2.12117188 0.5046875 2.24234375 -0.265625 2.3671875 C-1.25046875 2.53476563 -2.2353125 2.70234375 -3.25 2.875 C-4.22453125 3.03742188 -5.1990625 3.19984375 -6.203125 3.3671875 C-8.77264117 3.94855848 -10.72071056 4.70840265 -13 6 C-12 3 -12 3 -9.875 1.3125 C-6.34698639 -0.29811491 -3.83883977 -0.36215469 0 0 Z " fill="#8D3F24" transform="translate(165,74)"/>
<path d="M0 0 C1.9375 0.8125 1.9375 0.8125 4 2 C4.33 2.99 4.66 3.98 5 5 C3.35 6.32 1.7 7.64 0 9 C-1.36623674 6.26752652 -1.128426 4.01801098 -1 1 C-0.67 0.67 -0.34 0.34 0 0 Z " fill="#9D4F2D" transform="translate(498,121)"/>
<path d="M0 0 C0.33 0.99 0.66 1.98 1 3 C-0.5675518 4.7021698 -2.15459784 6.38640554 -3.75 8.0625 C-4.63171875 9.00222656 -5.5134375 9.94195312 -6.421875 10.91015625 C-9 13 -9 13 -11.328125 12.80859375 C-11.87984375 12.54175781 -12.4315625 12.27492187 -13 12 C-11.89591797 11.40251953 -11.89591797 11.40251953 -10.76953125 10.79296875 C-7.85299689 8.90483156 -5.93872461 6.94528811 -3.6875 4.3125 C-2.99011719 3.50425781 -2.29273438 2.69601563 -1.57421875 1.86328125 C-1.05472656 1.24839844 -0.53523437 0.63351563 0 0 Z " fill="#883D1F" transform="translate(577,116)"/>
<path d="M0 0 C2.33524782 2.25740623 4.18705073 4.2805761 6 7 C6.99 6.01 7.98 5.02 9 4 C8.67 5.65 8.34 7.3 8 9 C6.68 9 5.36 9 4 9 C0 2.25 0 2.25 0 0 Z " fill="#8F3F1D" transform="translate(608,99)"/>
<path d="M0 0 C0.66 0.33 1.32 0.66 2 1 C1.071875 1.99 1.071875 1.99 0.125 3 C-2.49874482 6.70411034 -3.10086342 9.57924515 -4 14 C-5.125 12.375 -5.125 12.375 -6 10 C-5.06056062 5.49069095 -3.46049455 2.99909528 0 0 Z " fill="#8D4221" transform="translate(697,83)"/>
<path d="M0 0 C0.99 0.33 1.98 0.66 3 1 C0.58443874 4.19199167 -1.68003538 6.74716687 -5 9 C-5.66 8.67 -6.32 8.34 -7 8 C-4.69 5.36 -2.38 2.72 0 0 Z " fill="#944423" transform="translate(139,67)"/>
<path d="M0 0 C0.66 0.33 1.32 0.66 2 1 C2 1.99 2 2.98 2 4 C-0.64 4.33 -3.28 4.66 -6 5 C-6 4.01 -6 3.02 -6 2 C-4.02 2 -2.04 2 0 2 C0 1.34 0 0.68 0 0 Z " fill="#B35528" transform="translate(67,128)"/>
<path d="M0 0 C0.33 0 0.66 0 1 0 C1 6.93 1 13.86 1 21 C0.67 21 0.34 21 0 21 C-0.82114165 15.5599366 -1.01420224 10.77589885 -0.5 5.3125 C-0.4071875 4.31863281 -0.314375 3.32476562 -0.21875 2.30078125 C-0.11046875 1.16189453 -0.11046875 1.16189453 0 0 Z " fill="#AC5127" transform="translate(246,101)"/>
<path d="M0 0 C4.17950077 3.45889719 5.32762134 6.98286401 7 12 C4 11 4 11 2.375 8.8125 C0.91614268 5.82847367 0.38191315 3.28445306 0 0 Z " fill="#914323" transform="translate(602,85)"/>
<path d="M0 0 C3 0 3 0 5.1875 2 C5.785625 2.66 6.38375 3.32 7 4 C6.67 4.99 6.34 5.98 6 7 C5.01 7.33 4.02 7.66 3 8 C3 6.68 3 5.36 3 4 C1.68 3.34 0.36 2.68 -1 2 C-0.67 1.34 -0.34 0.68 0 0 Z " fill="#A95E3F" transform="translate(235,70)"/>
<path d="M0 0 C0.33 0 0.66 0 1 0 C1.02721176 1.89575251 1.04649136 3.79161979 1.0625 5.6875 C1.07410156 6.74324219 1.08570313 7.79898438 1.09765625 8.88671875 C1.00865425 11.72410262 0.64939838 14.2438919 0 17 C-2.50014115 13.25904806 -1.90042304 10.55790579 -1.125 6.25 C-0.92132813 5.07953125 -0.71765625 3.9090625 -0.5078125 2.703125 C-0.34023438 1.81109375 -0.17265625 0.9190625 0 0 Z " fill="#994521" transform="translate(314,42)"/>
<path d="M0 0 C0.33 0 0.66 0 1 0 C0.67 5.94 0.34 11.88 0 18 C-0.33 18 -0.66 18 -1 18 C-2.51708428 5.33029613 -2.51708428 5.33029613 0 0 Z " fill="#984224" transform="translate(377,108)"/>
<path d="M0 0 C3.96 0 7.92 0 12 0 C12 0.66 12 1.32 12 2 C8.95016004 3.52491998 6.3576631 3.23562548 3 3 C2.01 2.01 1.02 1.02 0 0 Z " fill="#8C4122" transform="translate(240,52)"/>
<path d="M0 0 C0 0.33 0 0.66 0 1 C-4.62 1.33 -9.24 1.66 -14 2 C-14 1.34 -14 0.68 -14 0 C-8.97703996 -1.13016601 -5.02125926 -0.77916092 0 0 Z " fill="#934C30" transform="translate(405,51)"/>
<path d="M0 0 C1.32 0.33 2.64 0.66 4 1 C2 3 0 5 -2 7 C-3.32 5.68 -4.64 4.36 -6 3 C-4.35 3 -2.7 3 -1 3 C-0.67 2.01 -0.34 1.02 0 0 Z M-4 7 C-2 8 -2 8 -2 8 Z " fill="#B06341" transform="translate(76,32)"/>
<path d="M0 0 C1.875 1.1875 1.875 1.1875 2.875 3.1875 C1.885 3.1875 0.895 3.1875 -0.125 3.1875 C-0.455 3.8475 -0.785 4.5075 -1.125 5.1875 C-2.445 3.5375 -3.765 1.8875 -5.125 0.1875 C-2.125 -0.8125 -2.125 -0.8125 0 0 Z " fill="#9C4A27" transform="translate(135.125,120.8125)"/>
<path d="M0 0 C1.31223496 3.93670488 0.24296256 6.12488144 -1 10 C-1.66 10 -2.32 10 -3 10 C-2.25 2.25 -2.25 2.25 0 0 Z " fill="#9A4B29" transform="translate(628,69)"/>
<path d="M0 0 C2 1 2 1 3.4375 4.4375 C4.70190988 8.19068113 4.70190988 8.19068113 8 10 C6.68 10.33 5.36 10.66 4 11 C0.85041169 7.57653445 0.43820891 4.55737263 0 0 Z " fill="#A9705C" transform="translate(20,45)"/>
<path d="M0 0 C0.99 0 1.98 0 3 0 C3 2.97 3 5.94 3 9 C2.01 9 1.02 9 0 9 C0 6.03 0 3.06 0 0 Z " fill="#AB6143" transform="translate(689,113)"/>
<path d="M0 0 C0.33 0 0.66 0 1 0 C2.33257403 9.41002278 2.33257403 9.41002278 1 14 C0.34 14 -0.32 14 -1 14 C-0.67 9.38 -0.34 4.76 0 0 Z " fill="#AA6D57" transform="translate(230,89)"/>
<path d="M0 0 C2.97 0.33 5.94 0.66 9 1 C9 1.33 9 1.66 9 2 C7.71254964 2.38922918 6.41980403 2.76098036 5.125 3.125 C4.40570312 3.33382812 3.68640625 3.54265625 2.9453125 3.7578125 C2.30335938 3.83773437 1.66140625 3.91765625 1 4 C0.34 3.34 -0.32 2.68 -1 2 C-0.67 1.34 -0.34 0.68 0 0 Z " fill="#A14823" transform="translate(703,64)"/>
<path d="M0 0 C1.98 0.66 3.96 1.32 6 2 C5.01 3.485 5.01 3.485 4 5 C3.61500109 6.65549531 3.27206865 8.3222433 3 10 C1.11608215 6.73454239 0.50712033 3.71888239 0 0 Z " fill="#AC5F3D" transform="translate(617,121)"/>
<path d="M0 0 C0.66 0 1.32 0 2 0 C2.99 3.3 3.98 6.6 5 10 C0.07692308 5.69230769 0.07692308 5.69230769 -0.3125 2.1875 C-0.209375 1.465625 -0.10625 0.74375 0 0 Z " fill="#8C3F21" transform="translate(310,114)"/>
<path d="M0 0 C0.99 0.33 1.98 0.66 3 1 C2.319375 1.556875 2.319375 1.556875 1.625 2.125 C-0.47029394 4.54264685 -1.12013285 6.95430602 -2 10 C-2.33 10 -2.66 10 -3 10 C-3.36923077 4.58461538 -3.36923077 4.58461538 -1.5 1.625 C-1.005 1.08875 -0.51 0.5525 0 0 Z " fill="#8B3E21" transform="translate(632,58)"/>
<path d="M0 0 C0.99 0.33 1.98 0.66 3 1 C2.34 1.66 1.68 2.32 1 3 C0.54188325 4.97235333 0.54188325 4.97235333 0.375 7.125 C0.25125 8.40375 0.1275 9.6825 0 11 C-1.77084117 8.29165469 -2.01052504 7.10735541 -1.6875 3.8125 C-1 1 -1 1 0 0 Z " fill="#954021" transform="translate(23,39)"/>
<path d="M0 0 C0.66 0 1.32 0 2 0 C3.35439668 2.70879335 3.06501451 5.00933268 3 8 C2.34 8 1.68 8 1 8 C-0.35439668 5.29120665 -0.06501451 2.99066732 0 0 Z " fill="#B17253" transform="translate(315,25)"/>
<path d="M0 0 C0 0.99 0 1.98 0 3 C-2.40545638 4.20272819 -3.94996953 4.10071472 -6.625 4.0625 C-7.85089844 4.04896484 -7.85089844 4.04896484 -9.1015625 4.03515625 C-10.04128906 4.01775391 -10.04128906 4.01775391 -11 4 C-11 3.67 -11 3.34 -11 3 C-9.01432292 2.51171875 -7.02864583 2.0234375 -5.04296875 1.53515625 C-3.34316798 1.08989295 -1.66698046 0.55566015 0 0 Z " fill="#923F1B" transform="translate(495,129)"/>
<path d="M0 0 C1.74271938 2.297221 3.39911152 4.59866729 5 7 C4.67 7.99 4.34 8.98 4 10 C3.13619741 8.71475739 2.28419631 7.42157581 1.4375 6.125 C0.96183594 5.40570313 0.48617187 4.68640625 -0.00390625 3.9453125 C-0.33261719 3.30335937 -0.66132812 2.66140625 -1 2 C-0.67 1.34 -0.34 0.68 0 0 Z " fill="#8F4122" transform="translate(550,117)"/>
<path d="M0 0 C0.66 0 1.32 0 2 0 C3.16063604 4.25566547 2.76173392 7.6835078 2 12 C1.67 12 1.34 12 1 12 C0.67 8.04 0.34 4.08 0 0 Z " fill="#9E5A3F" transform="translate(715,92)"/>
<path d="M0 0 C2.5654594 2.5654594 2.54046087 4.47686668 3 8 C2.01 8.33 1.02 8.66 0 9 C-1.125 2.25 -1.125 2.25 0 0 Z " fill="#A76042" transform="translate(256,36)"/>
<path d="M0 0 C-4.77573323 2.61895048 -8.84434881 1.83119431 -14 1 C-14 0.67 -14 0.34 -14 0 C-12.41773035 -0.19627391 -10.83410729 -0.38165538 -9.25 -0.5625 C-8.36828125 -0.66691406 -7.4865625 -0.77132812 -6.578125 -0.87890625 C-4.11567549 -0.99456676 -2.33461936 -0.73638695 0 0 Z " fill="#AF6F5B" transform="translate(389,34)"/>
<path d="M0 0 C5.41538462 -0.36923077 5.41538462 -0.36923077 8.375 1.5 C8.91125 1.995 9.4475 2.49 10 3 C9.67 3.99 9.34 4.98 9 6 C7.88625 5.071875 7.88625 5.071875 6.75 4.125 C4.51198812 2.39562719 2.56260013 1.13893339 0 0 Z " fill="#8A3F1F" transform="translate(246,32)"/>
<path d="M0 0 C2.64 0.99 5.28 1.98 8 3 C8 3.66 8 4.32 8 5 C4.62537285 4.45276317 2.91765 3.9451 0 2 C0 1.34 0 0.68 0 0 Z " fill="#8E3E21" transform="translate(136,125)"/>
<path d="M0 0 C0.33 0.99 0.66 1.98 1 3 C-0.8125 6.1875 -0.8125 6.1875 -3 9 C-3.66 9 -4.32 9 -5 9 C-3.50163895 5.88801935 -1.80066242 2.9465385 0 0 Z " fill="#8E4022" transform="translate(584,106)"/>
<path d="M0 0 C0.66 0 1.32 0 2 0 C3.02028865 1.31787285 4.01971384 2.65210653 5 4 C5.66 4.33 6.32 4.66 7 5 C5.02 5.99 5.02 5.99 3 7 C0 2.25 0 2.25 0 0 Z " fill="#90411E" transform="translate(560,101)"/>
<path d="M0 0 C0.66 0.33 1.32 0.66 2 1 C2 1.66 2 2.32 2 3 C2.99 3.33 3.98 3.66 5 4 C2.36 4.33 -0.28 4.66 -3 5 C-2.01 3.35 -1.02 1.7 0 0 Z " fill="#B16139" transform="translate(555,91)"/>
<path d="M0 0 C3.09751507 3.09751507 2.97001681 6.62077344 3.0625 10.875 C3.041875 11.57625 3.02125 12.2775 3 13 C1.32889958 10.03821227 0.67317248 7.62928808 0.375 4.25 C0.30023437 3.45078125 0.22546875 2.6515625 0.1484375 1.828125 C0.09945312 1.22484375 0.05046875 0.6215625 0 0 Z " fill="#A8654D" transform="translate(539,87)"/>
<path d="M0 0 C2 2 2 2 2.125 4.625 C2.08375 5.40875 2.0425 6.1925 2 7 C1.01 7.33 0.02 7.66 -1 8 C-1.04241723 5.66705225 -1.04092937 3.33297433 -1 1 C-0.67 0.67 -0.34 0.34 0 0 Z " fill="#B0684E" transform="translate(675,84)"/>
<path d="M0 0 C0.33 0 0.66 0 1 0 C1 1.98 1 3.96 1 6 C1.66 6 2.32 6 3 6 C3 7.65 3 9.3 3 11 C2.34 11 1.68 11 1 11 C-0.28317892 7.15046324 -0.06643637 4.05261865 0 0 Z " fill="#A55F43" transform="translate(374,68)"/>
<path d="M0 0 C0.33 0.66 0.66 1.32 1 2 C0.1028125 2.0928125 0.1028125 2.0928125 -0.8125 2.1875 C-3.87143458 3.3236757 -4.55041099 5.17330142 -6 8 C-7 5 -7 5 -6.375 2.875 C-5 1 -5 1 -2.375 0.25 C-1.59125 0.1675 -0.8075 0.085 0 0 Z " fill="#9C4D2F" transform="translate(545,60)"/>
<path d="M0 0 C0.99 0 1.98 0 3 0 C3.33 1.65 3.66 3.3 4 5 C2.68 5 1.36 5 0 5 C-0.5625 3.0625 -0.5625 3.0625 -1 1 C-0.67 0.67 -0.34 0.34 0 0 Z " fill="#9B4B22" transform="translate(639,56)"/>
<path d="M0 0 C0 0.99 0 1.98 0 3 C-0.78375 3.0825 -1.5675 3.165 -2.375 3.25 C-5.14749104 3.72806339 -5.14749104 3.72806339 -6.3125 6.0625 C-6.6528125 7.0215625 -6.6528125 7.0215625 -7 8 C-7.3125 5.6875 -7.3125 5.6875 -7 3 C-4.6167054 1.18116991 -3.04181663 0 0 0 Z " fill="#B15524" transform="translate(30,39)"/>
<path d="M0 0 C0.33 0 0.66 0 1 0 C1.28571429 7.42857143 1.28571429 7.42857143 -1 11 C-2.23076923 4.6 -2.23076923 4.6 -1.0625 1.5625 C-0.711875 1.046875 -0.36125 0.53125 0 0 Z " fill="#A45B47" transform="translate(74,117)"/>
<path d="M0 0 C2.475 0.495 2.475 0.495 5 1 C4.0022242 3.99332739 3.2477975 4.94766315 1 7 C0.67 4.69 0.34 2.38 0 0 Z " fill="#BC7252" transform="translate(643,61)"/>
<path d="M0 0 C1.98 0 3.96 0 6 0 C5.01 0.66 4.02 1.32 3 2 C2.01 1.67 1.02 1.34 0 1 C0 0.67 0 0.34 0 0 Z " fill="#B58579" transform="translate(146,110)"/>
<path d="M0 0 C0.66 0 1.32 0 2 0 C1.67 0.66 1.34 1.32 1 2 C0.67 1.34 0.34 0.68 0 0 Z " fill="#C68D8D" transform="translate(50,56)"/>
<path d="" fill="#CCB2B2" transform="translate(0,0)"/>
<path d="" fill="#B4AAAA" transform="translate(0,0)"/>
<path d="M0 0 C2 1 2 1 2 1 Z " fill="#BA9676" transform="translate(691,65)"/>
<path d="" fill="#FFFFFF" transform="translate(0,0)"/>
<path d="" fill="#FFFFFF" transform="translate(0,0)"/>
<path d="" fill="#996666" transform="translate(0,0)"/>
<path d="" fill="#FFFFFF" transform="translate(0,0)"/>
<path d="" fill="#996666" transform="translate(0,0)"/>
<path d="" fill="#FFFFFF" transform="translate(0,0)"/>
<path d="" fill="#FFFFFF" transform="translate(0,0)"/>
<path d="" fill="#FFFFFF" transform="translate(0,0)"/>
<path d="" fill="#FFFFFF" transform="translate(0,0)"/>
<path d="" fill="#BFBF80" transform="translate(0,0)"/>
<path d="" fill="#894E4E" transform="translate(0,0)"/>
<path d="" fill="#FFFFFF" transform="translate(0,0)"/>
</svg>
